<?xml version="1.0" encoding="utf-8"?>
<!-- Generator: Adobe Illustrator 19.2.0, SVG Export Plug-In . SVG Version: 6.00 Build 0)  -->
<svg version="1.1" id="Layer_2" xmlns="http://www.w3.org/2000/svg" xmlns:xlink="http://www.w3.org/1999/xlink" x="0px" y="0px"
	 viewBox="0 0 1250 340" style="enable-background:new 0 0 1250 340;" xml:space="preserve">
<style type="text/css">
	.st0{fill:#0B6164;}
	.st1{font-family:'Audiowide-Regular';}
	.st2{font-size:59.4777px;}
	.st3{fill:#F69820;}
	.st4{font-size:124.334px;}
	.st5{font-size:22.6553px;}
	.st6{fill:#0D6265;stroke:#E7E7E7;stroke-width:2;stroke-miterlimit:10;}
	.st7{fill:#F2F2F2;}
	.st8{font-size:122.5953px;}
	.st9{font-size:115.5729px;}
</style>
<text transform="matrix(1 0 0 1 566.0508 105.0615)" class="st0 st1 st2">Welcome to</text>
<text transform="matrix(1 0 0 1 364.4736 214.7891)" class="st3 st1 st4">MakersList</text>
<text transform="matrix(1 0 0 1 421.6431 257.1475)" class="st0 st1 st5">The always up-to-date parts list creator for Makers</text>
<title>logo</title>
<polygon class="st6" points="167.6,153.7 166.2,90 220.7,57 276.5,87.7 277.8,151.4 223.4,184.3 "/>
<polygon class="st6" points="226.5,249.3 225.1,185.7 279.6,152.7 335.4,183.3 336.7,247 282.3,280 "/>
<polygon class="st6" points="113.3,252.3 112,188.6 166.5,155.7 222.3,186.3 223.6,250 169.1,283 "/>
<text transform="matrix(1 0 0 1 228.8496 254.9982)" class="st7 st1 st8">L</text>
<text transform="matrix(1 0 0 1 117.4668 196.0851)" class="st7 st1 st9">M</text>
</svg>
