<?xml version="1.0" encoding="utf-8"?>
<!-- Generator: Adobe Illustrator 19.2.0, SVG Export Plug-In . SVG Version: 6.00 Build 0)  -->
<svg version="1.1" xmlns="http://www.w3.org/2000/svg" xmlns:xlink="http://www.w3.org/1999/xlink" x="0px" y="0px"
	 viewBox="0 0 1250 340" style="enable-background:new 0 0 1250 340;" xml:space="preserve">
<style type="text/css">
	.st0{fill:none;}
	.st1{fill:#0B6164;}
	.st2{font-family:'Audiowide-Regular';}
	.st3{font-size:66.6687px;}
	.st4{fill:#F69820;}
	.st5{font-size:139.3664px;}
	.st6{font-size:25.3944px;}
	.st7{fill:#0D6265;stroke:#E7E7E7;stroke-width:2;stroke-miterlimit:10;}
	.st8{fill:#F2F2F2;}
	.st9{font-size:137.4175px;}
	.st10{font-size:129.546px;}
</style>
<g id="Layer_3">
	<rect class="st0" width="1250" height="340"/>
</g>
<g id="Layer_2">
	<text transform="matrix(1 0 0 1 558.9463 86.9409)" class="st1 st2 st3">Welcome to</text>
	<text transform="matrix(1 0 0 1 332.998 209.9346)" class="st4 st2 st5">MakersList</text>
	<text transform="matrix(1 0 0 1 397.0796 257.4141)" class="st1 st2 st6">The always up-to-date parts list creator for Makers</text>
	<title>logo</title>
	<polygon class="st7" points="112.3,141.4 110.8,70.1 171.8,33.1 234.4,67.5 235.9,138.8 174.8,175.8 	"/>
	<polygon class="st7" points="178.3,248.6 176.8,177.3 237.9,140.3 300.4,174.7 301.9,246 240.8,283 	"/>
	<polygon class="st7" points="51.5,252 50,180.6 111,143.7 173.6,178.1 175.1,249.4 114,286.4 	"/>
	<text transform="matrix(1 0 0 1 180.9775 255.0049)" class="st8 st2 st9">L</text>
	<text transform="matrix(1 0 0 1 56.1279 188.9697)" class="st8 st2 st10">M</text>
</g>
</svg>
